<svg width="32" height="32" viewBox="0 0 32 32" fill="none" xmlns="http://www.w3.org/2000/svg">
<path d="M11.5571 14.6685C11.5571 12.2137 13.5466 10.2231 16.0015 10.2231C18.4564 10.2231 20.447 12.2137 20.447 14.6685C20.447 17.1233 18.4564 19.1138 16.0015 19.1138C13.5466 19.1138 11.5571 17.1233 11.5571 14.6685ZM9.15389 14.6685C9.15389 18.4503 12.2196 21.5158 16.0015 21.5158C19.7835 21.5158 22.8491 18.4503 22.8491 14.6685C22.8491 10.8867 19.7835 7.82111 16.0015 7.82111C12.2196 7.82111 9.15389 10.8867 9.15389 14.6685ZM21.52 7.54961C21.5198 7.8661 21.6136 8.17552 21.7893 8.43874C21.965 8.70196 22.2149 8.90717 22.5072 9.0284C22.7996 9.14963 23.1213 9.18145 23.4318 9.11983C23.7422 9.05821 24.0274 8.90592 24.2513 8.68222C24.4752 8.45851 24.6277 8.17345 24.6896 7.86307C24.7515 7.55268 24.7199 7.23092 24.5989 6.93848C24.4779 6.64603 24.2729 6.39603 24.0098 6.2201C23.7467 6.04416 23.4374 5.95019 23.1209 5.95006H23.1202C22.696 5.95026 22.2891 6.11882 21.9891 6.41874C21.6891 6.71865 21.5203 7.12539 21.52 7.54961ZM10.614 25.5228C9.31381 25.4636 8.60714 25.247 8.13752 25.0641C7.51491 24.8217 7.07068 24.533 6.60361 24.0666C6.13655 23.6002 5.84744 23.1564 5.60612 22.5338C5.42305 22.0645 5.20648 21.3576 5.14738 20.0575C5.08273 18.6519 5.06982 18.2296 5.06982 14.6686C5.06982 11.1075 5.08379 10.6864 5.14738 9.27964C5.20659 7.97953 5.42476 7.27406 5.60612 6.80328C5.8485 6.1807 6.13719 5.73649 6.60361 5.26944C7.07004 4.8024 7.51384 4.5133 8.13752 4.27199C8.60693 4.08893 9.31381 3.87237 10.614 3.81327C12.0196 3.74862 12.4419 3.73571 16.0015 3.73571C19.5611 3.73571 19.9838 3.74968 21.3907 3.81327C22.6908 3.87247 23.3963 4.09063 23.8671 4.27199C24.4897 4.5133 24.9339 4.80304 25.401 5.26944C25.8681 5.73585 26.1561 6.1807 26.3985 6.80328C26.5816 7.27267 26.7981 7.97953 26.8572 9.27964C26.9219 10.6864 26.9348 11.1075 26.9348 14.6686C26.9348 18.2296 26.9219 18.6507 26.8572 20.0575C26.798 21.3576 26.5804 22.0642 26.3985 22.5338C26.1561 23.1564 25.8674 23.6006 25.401 24.0666C24.9346 24.5326 24.4897 24.8217 23.8671 25.0641C23.3977 25.2471 22.6908 25.4637 21.3907 25.5228C19.985 25.5874 19.5627 25.6004 16.0015 25.6004C12.4403 25.6004 12.0192 25.5874 10.614 25.5228ZM10.5036 1.41425C9.08391 1.4789 8.11383 1.70399 7.26665 2.03363C6.38929 2.37405 5.64655 2.83075 4.90435 3.57174C4.16215 4.31274 3.70661 5.05662 3.36618 5.93395C3.03653 6.78163 2.81143 7.75113 2.74678 9.17072C2.68106 10.5925 2.66602 11.0471 2.66602 14.6685C2.66602 18.2898 2.68106 18.7444 2.74678 20.1662C2.81143 21.5859 3.03653 22.5553 3.36618 23.403C3.70661 24.2798 4.16226 25.0245 4.90435 25.7652C5.64645 26.5058 6.38929 26.9619 7.26665 27.3033C8.11543 27.6329 9.08391 27.858 10.5036 27.9227C11.9262 27.9873 12.38 28.0034 16.0015 28.0034C19.623 28.0034 20.0776 27.9884 21.4995 27.9227C22.9192 27.858 23.8887 27.6329 24.7364 27.3033C25.6132 26.9619 26.3565 26.5062 27.0987 25.7652C27.8409 25.0242 28.2955 24.2798 28.6368 23.403C28.9665 22.5553 29.1927 21.5858 29.2562 20.1662C29.3209 18.7433 29.3359 18.2898 29.3359 14.6685C29.3359 11.0471 29.3209 10.5925 29.2562 9.17072C29.1916 7.75103 28.9665 6.78109 28.6368 5.93395C28.2955 5.05715 27.8397 4.31391 27.0987 3.57174C26.3576 2.82957 25.6132 2.37405 24.7374 2.03363C23.8887 1.70399 22.9191 1.47783 21.5005 1.41425C20.0787 1.3496 19.6241 1.3335 16.0026 1.3335C12.3811 1.3335 11.9262 1.34854 10.5036 1.41425Z" fill="white"/>
</svg>
