<svg width="32" height="32" viewBox="0 0 32 32" fill="none" xmlns="http://www.w3.org/2000/svg">
<path d="M4.30286 15.1881C4.30286 15.1881 16.0969 10.2207 20.1872 8.47154C21.7553 7.77194 27.0728 5.53301 27.0728 5.53301C27.0728 5.53301 29.5271 4.55356 29.3225 6.93231C29.2543 7.91186 28.709 11.3401 28.1636 15.0482C27.3455 20.2956 26.4592 26.0327 26.4592 26.0327C26.4592 26.0327 26.3229 27.6419 25.1639 27.9217C24.005 28.2016 22.0961 26.9423 21.7553 26.6624C21.4825 26.4525 16.6422 23.3041 14.8697 21.7648C14.3925 21.3451 13.8472 20.5055 14.9379 19.526C17.3922 17.2171 20.3236 14.3486 22.0961 12.5295C22.9142 11.6899 23.7322 9.73093 20.3236 12.1097C15.4833 15.538 10.7112 18.7564 10.7112 18.7564C10.7112 18.7564 9.62036 19.456 7.57518 18.8263C5.52991 18.1967 3.14383 17.3571 3.14383 17.3571C3.14383 17.3571 1.50777 16.3076 4.30286 15.1881Z" fill="white"/>
</svg>
