<svg width="32" height="32" viewBox="0 0 32 32" fill="none" xmlns="http://www.w3.org/2000/svg">
<path fill-rule="evenodd" clip-rule="evenodd" d="M28.7227 9.00605C28.9081 8.42618 28.7227 8.00009 27.8405 8.00009H24.9231C24.1814 8.00009 23.8394 8.36817 23.6539 8.77406C23.6539 8.77406 22.1703 12.1663 20.0687 14.3697C19.3887 15.0075 19.0796 15.2105 18.7087 15.2105C18.5233 15.2105 18.2549 15.0075 18.2549 14.4277V9.00605C18.2549 8.31021 18.0396 8.00009 17.4214 8.00009H12.837C12.3735 8.00009 12.0947 8.32305 12.0947 8.62913C12.0947 9.28877 13.1455 9.44089 13.2538 11.2965V15.3265C13.2538 16.2101 13.0837 16.3703 12.7128 16.3703C11.7238 16.3703 9.31805 12.9629 7.89123 9.06402C7.6116 8.30621 7.33114 8.00009 6.58555 8.00009H3.66821C2.83468 8.00009 2.66797 8.36817 2.66797 8.77406C2.66797 9.4989 3.65701 13.094 7.27312 17.8489C9.68384 21.096 13.0804 22.8562 16.1711 22.8562C18.0255 22.8562 18.2549 22.4653 18.2549 21.7919V19.3377C18.2549 18.5558 18.4306 18.3997 19.0178 18.3997C19.4505 18.3997 20.1923 18.6027 21.9231 20.1683C23.9012 22.0238 24.2273 22.8562 25.3399 22.8562H28.2572C29.0908 22.8562 29.5075 22.4653 29.2671 21.6938C29.004 20.9248 28.0596 19.8092 26.8065 18.4867C26.1265 17.7329 25.1066 16.9211 24.7975 16.5151C24.3648 15.9933 24.4884 15.7613 24.7975 15.2975C24.7975 15.2975 28.3518 10.6006 28.7227 9.00605Z" fill="white"/>
</svg>
