<svg width="32" height="32" viewBox="0 0 32 32" fill="none" xmlns="http://www.w3.org/2000/svg">
<path d="M28.7789 9.5886C28.4735 8.44027 27.5699 7.53437 26.4202 7.2239C24.3415 6.66675 16.0013 6.66675 16.0013 6.66675C16.0013 6.66675 7.66532 6.66675 5.58238 7.2239C4.43698 7.53012 3.53338 8.43602 3.2237 9.5886C2.66797 11.6726 2.66797 16.0235 2.66797 16.0235C2.66797 16.0235 2.66797 20.3743 3.2237 22.4583C3.52914 23.6067 4.43274 24.5126 5.58238 24.823C7.66532 25.3802 16.0013 25.3802 16.0013 25.3802C16.0013 25.3802 24.3415 25.3802 26.4202 24.823C27.5656 24.5168 28.4692 23.6109 28.7789 22.4583C29.3346 20.3743 29.3346 16.0235 29.3346 16.0235C29.3346 16.0235 29.3346 11.6726 28.7789 9.5886Z" fill="white"/>
<path d="M13.3372 20.0341L20.2647 16.0235L13.3372 12.0128V20.0341Z" fill="black"/>
</svg>
